<?xml version="1.0" encoding="utf-8"?><!-- Uploaded to: SVG Repo, www.svgrepo.com, Generator: SVG Repo Mixer Tools -->
<svg width="702" height="710" viewBox="0 0 702 710" fill="none" xmlns="http://www.w3.org/2000/svg">
<path fill-rule="evenodd" clip-rule="evenodd" d="M53.6667 354.999C53.6667 203.778 171.523 53.6656 354.999 53.6656C503.176 53.6656 576.413 163.339 607.621 221.665H515C500.273 221.665 488.333 233.604 488.333 248.332C488.333 263.059 500.273 274.998 515 274.998H675C689.727 274.998 701.667 263.059 701.667 248.332V88.3317C701.667 73.6043 689.727 61.6651 675 61.6651C660.272 61.6651 648.333 73.6043 648.333 88.3317V185.036C610.758 118.801 523.85 0.332062 354.999 0.332062C138.317 0.332062 0.333313 178.22 0.333313 354.999C0.333313 531.779 138.317 709.667 354.999 709.667C458.67 709.667 544.985 668.643 606.441 606.115C639.346 572.632 665.044 533.08 682.565 490.504C688.17 476.886 681.673 461.301 668.054 455.697C654.435 450.091 638.85 456.588 633.245 470.207C618.267 506.6 596.336 540.307 568.403 568.728C516.572 621.469 443.802 656.333 354.999 656.333C171.523 656.333 53.6667 506.221 53.6667 354.999Z" fill="#030047"/>
</svg>