<svg width="137" height="137" viewBox="0 0 137 137" fill="none" xmlns="http://www.w3.org/2000/svg">
<g clip-path="url(#clip0_7_301)">
<path d="M22 122.5L16 113.5L13.5 104L15 92.5L18 83.5L21.5 86L33 92L46.5 91.5L59.5 87L65 88L72.5 90L81.5 91.5L88.5 92L98 88L104 83.5L109 96L107.5 107.5L104 117L92.5 128L80.5 132.5H42L33 130L22 122.5Z" fill="#FF3E6C" stroke="#EFF1F2"/>
<mask id="path-2-inside-1_7_301" fill="white">
<path d="M93.4833 39.4624H92.9422V27.0695C92.9422 25.2926 91.8318 23.705 90.1626 23.0949L27.6547 0.25714C26.2767 -0.246709 24.7365 -2.44379e-06 23.5844 0.907087C22.4322 1.81471 21.832 3.25401 21.9984 4.71151L26.3993 43.243L11.5366 87.7774C8.74982 96.1277 8.97753 105.232 12.177 113.414C15.4037 121.665 21.4576 128.458 29.2241 132.541C34.7731 135.458 41.0398 137 47.3472 137H75.6984C76.0337 137 76.3681 136.996 76.7029 136.987C88.9136 136.678 99.796 130.609 106.56 120.336C113.335 110.045 114.652 97.0864 110.08 85.6713L94.9817 47.9711C108.322 48.7495 118.937 59.8473 118.937 73.3795C118.937 75.7166 120.832 77.611 123.168 77.611C125.505 77.611 127.4 75.7166 127.4 73.3795C127.4 54.6774 112.185 39.4624 93.4833 39.4624ZM84.4792 30.0284V39.4624H34.485L31.1836 10.5568L84.4792 30.0284ZM99.4912 115.682C94.2731 123.607 85.8888 128.289 76.4899 128.527C76.2266 128.534 75.963 128.537 75.6981 128.537H47.3469C42.3357 128.537 37.5634 127.364 33.1623 125.05C20.7678 118.534 15.0494 103.985 19.5643 90.4564L19.5961 90.3614C25.3538 94.2691 32.1613 96.3806 39.2168 96.3806C44.1745 96.3806 48.9676 95.3627 53.4627 93.3551C58.3754 91.1612 64.0109 91.1609 68.9241 93.3551C73.4194 95.3624 78.2126 96.3806 83.1705 96.3806C90.2514 96.3806 97.0407 94.2747 102.791 90.3665C105.631 98.8187 104.44 108.167 99.4912 115.682ZM99.584 82.2278C94.9218 85.9129 89.1854 87.9173 83.1705 87.9173C79.4097 87.9173 75.7776 87.147 72.3748 85.6277C65.2693 82.4545 57.118 82.4542 50.012 85.6277C46.6092 87.147 42.9773 87.9173 39.2165 87.9173C33.0564 87.9173 27.1469 85.7922 22.4156 81.9116L33.7579 47.9254H85.8466L99.584 82.2278Z"/>
</mask>
<path d="M93.4833 39.4624H92.9422V27.0695C92.9422 25.2926 91.8318 23.705 90.1626 23.0949L27.6547 0.25714C26.2767 -0.246709 24.7365 -2.44379e-06 23.5844 0.907087C22.4322 1.81471 21.832 3.25401 21.9984 4.71151L26.3993 43.243L11.5366 87.7774C8.74982 96.1277 8.97753 105.232 12.177 113.414C15.4037 121.665 21.4576 128.458 29.2241 132.541C34.7731 135.458 41.0398 137 47.3472 137H75.6984C76.0337 137 76.3681 136.996 76.7029 136.987C88.9136 136.678 99.796 130.609 106.56 120.336C113.335 110.045 114.652 97.0864 110.08 85.6713L94.9817 47.9711C108.322 48.7495 118.937 59.8473 118.937 73.3795C118.937 75.7166 120.832 77.611 123.168 77.611C125.505 77.611 127.4 75.7166 127.4 73.3795C127.4 54.6774 112.185 39.4624 93.4833 39.4624ZM84.4792 30.0284V39.4624H34.485L31.1836 10.5568L84.4792 30.0284ZM99.4912 115.682C94.2731 123.607 85.8888 128.289 76.4899 128.527C76.2266 128.534 75.963 128.537 75.6981 128.537H47.3469C42.3357 128.537 37.5634 127.364 33.1623 125.05C20.7678 118.534 15.0494 103.985 19.5643 90.4564L19.5961 90.3614C25.3538 94.2691 32.1613 96.3806 39.2168 96.3806C44.1745 96.3806 48.9676 95.3627 53.4627 93.3551C58.3754 91.1612 64.0109 91.1609 68.9241 93.3551C73.4194 95.3624 78.2126 96.3806 83.1705 96.3806C90.2514 96.3806 97.0407 94.2747 102.791 90.3665C105.631 98.8187 104.44 108.167 99.4912 115.682ZM99.584 82.2278C94.9218 85.9129 89.1854 87.9173 83.1705 87.9173C79.4097 87.9173 75.7776 87.147 72.3748 85.6277C65.2693 82.4545 57.118 82.4542 50.012 85.6277C46.6092 87.147 42.9773 87.9173 39.2165 87.9173C33.0564 87.9173 27.1469 85.7922 22.4156 81.9116L33.7579 47.9254H85.8466L99.584 82.2278Z" fill="#030047" stroke="white" stroke-width="6" mask="url(#path-2-inside-1_7_301)"/>
</g>
<defs>
<clipPath id="clip0_7_301">
<rect width="137" height="137" fill="white"/>
</clipPath>
</defs>
</svg>
