<svg width="442" height="464" viewBox="0 0 442 464" fill="none" xmlns="http://www.w3.org/2000/svg">
<path d="M83.7602 315.518C130.02 315.518 167.52 278.017 167.52 231.757C167.52 185.498 130.02 147.997 83.7602 147.997C37.5007 147.997 0 185.498 0 231.757C0 278.017 37.5007 315.518 83.7602 315.518Z" fill="#FF3E6C"/>
<path d="M295.522 19.9954C295.365 30.859 286.705 39.6759 275.842 39.6759C264.978 39.6759 256.161 30.859 256.161 19.9954C256.161 9.13176 264.978 0.314903 275.842 0.314903C286.705 0.314903 295.68 5.51055 295.522 19.9954Z" fill="#FF3E6C"/>
<path d="M313.156 158.231L278.676 180.746L316.777 198.852L313.156 158.231Z" fill="#FF3E6C"/>
<path d="M338.934 149.945L325.562 155.089L330.706 168.46L344.077 163.317L338.934 149.945Z" fill="#FF3E6C"/>
<path d="M174.291 415.022C176.022 424.154 179.171 430.609 182.793 435.49C183.107 435.962 183.422 436.277 183.737 436.749C184.524 437.694 185.312 438.481 186.099 439.268C186.571 439.741 186.886 440.056 187.358 440.371C191.609 444.149 196.175 446.353 200.111 448.085C210.03 452.336 210.503 463.2 210.503 463.2L132.725 462.728C133.67 449.817 133.67 425.413 133.67 425.413C149.887 420.69 157.759 417.699 174.291 415.022Z" fill="#030047"/>
<path d="M182.95 435.49C183.265 435.962 183.58 436.277 183.895 436.749C180.746 438.166 177.597 439.741 174.448 441.158C173.503 441.63 172.716 440.213 173.661 439.898C176.81 438.324 179.801 436.907 182.95 435.49Z" fill="white"/>
<path d="M186.256 439.269C186.728 439.741 187.043 440.056 187.516 440.371C184.052 442.103 180.431 443.677 176.967 445.409C176.022 445.881 175.235 444.464 176.18 444.149C179.486 442.417 182.95 440.843 186.256 439.269Z" fill="white"/>
<path d="M66.4413 407.937C59.1989 413.763 54.9479 419.588 52.4288 425.099C52.2714 425.571 51.9565 426.043 51.799 426.516C51.3267 427.618 51.0118 428.72 50.6969 429.822C50.5395 430.294 50.382 430.924 50.2246 431.396C48.9651 436.907 49.1225 442.103 49.4374 446.354C50.2246 457.06 40.9354 462.57 40.9354 462.57L5.03821 393.61C15.9018 386.052 26.2931 378.968 34.6377 370.623C46.446 382.589 56.3649 394.397 66.4413 407.937Z" fill="#030047"/>
<path d="M182.162 246.242C182.162 246.242 163.427 238.37 147.997 236.323C148.942 222.783 149.257 213.809 149.257 213.809L99.5044 217.115C94.1514 247.817 91.9471 292.373 69.2752 331.577C59.0414 349.368 41.4076 363.538 22.9867 379.44C33.2205 393.452 49.5947 411.873 59.986 425.886C62.9774 421.005 107.377 397.546 130.049 337.245C129.419 385.58 127.687 435.017 127.687 435.017L184.052 431.396C184.052 431.396 191.767 329.215 182.162 246.242Z" fill="white"/>
<path d="M126.427 436.12V434.86C126.427 434.388 128.002 389.359 128.789 343.543C110.211 388.257 79.9815 411.401 66.9136 421.477C64.0796 423.682 61.5605 425.571 61.0882 426.358L60.1435 427.933L59.0414 426.516C54.1607 419.903 47.7055 412.188 41.5651 404.788C34.6376 396.286 27.3952 387.627 21.8846 380.07L21.2549 379.125L22.0421 378.338C23.9314 376.763 25.8207 375.031 27.7101 373.457C43.7693 359.602 58.884 346.534 68.0157 330.79C86.2792 299.143 91.16 264.033 95.2535 235.694C96.1982 228.923 97.1428 222.468 98.0875 216.643L98.2449 215.698L150.201 212.234V213.494C150.201 213.651 149.887 222.153 148.942 234.906C164.214 237.111 182.163 244.668 182.32 244.825L182.95 245.14L183.107 245.77C192.554 327.798 184.997 429.979 184.997 431.081V432.184L126.427 436.12ZM131.308 330.475L131.151 337.245C130.521 380.699 129.104 425.571 128.789 433.758L182.792 430.294C183.58 419.431 189.72 324.492 180.903 247.187C177.439 245.77 161.223 239.315 147.682 237.583L146.58 237.425L146.738 236.323C147.525 225.932 147.84 218.06 147.997 215.226L100.449 218.375C99.5045 224.043 98.7173 230.026 97.7726 236.481C93.6791 264.978 88.7983 300.403 70.3774 332.364C61.0882 348.423 45.8161 361.649 29.5994 375.661C28.025 377.078 26.4505 378.495 24.7186 379.755C30.0717 386.997 36.9993 395.342 43.6119 403.371C49.4373 410.456 55.4202 417.699 60.301 423.996C61.4031 423.052 63.135 421.635 65.6541 419.745C79.1942 409.354 111.155 384.793 129.261 336.773L131.308 330.475Z" fill="#030047"/>
<path d="M52.4288 424.941C52.2713 425.413 51.9565 425.886 51.799 426.358C48.965 424.311 46.2885 422.107 43.4545 420.06C42.6673 419.431 43.4545 418.014 44.2417 418.643C46.9183 420.848 49.5948 422.894 52.4288 424.941Z" fill="white"/>
<path d="M50.697 429.664C50.5395 430.137 50.3821 430.767 50.2246 431.239C47.0758 428.877 43.9269 426.673 40.9355 424.311C40.1482 423.682 40.9355 422.265 41.7227 422.894C44.7141 425.256 47.7055 427.46 50.697 429.664Z" fill="white"/>
<path d="M133.67 329.53C133.513 329.53 133.355 329.53 133.198 329.373C132.568 329.215 132.253 328.428 132.568 327.798C143.746 298.671 147.997 265.136 147.997 264.821L148.155 263.876H149.099C149.257 263.876 157.916 263.404 163.742 261.829C164.372 261.672 165.001 261.987 165.159 262.616C165.316 263.246 165.001 263.876 164.372 264.033C159.491 265.293 152.721 265.923 150.202 266.08C149.414 271.906 145.006 302.135 134.772 328.585C134.615 329.215 134.142 329.53 133.67 329.53Z" fill="#030047"/>
<path d="M349.998 182.163C299.773 182.163 258.995 141.385 258.995 91.1601C258.995 90.5303 259.468 89.9004 260.255 89.9004C261.042 89.9004 261.514 90.3728 261.514 91.1601C261.514 140.125 301.348 179.801 350.155 179.801C364.64 179.801 378.967 176.18 391.563 169.567C392.193 169.252 392.823 169.41 393.137 170.039C393.452 170.669 393.295 171.299 392.665 171.614C379.597 178.384 364.798 182.163 349.998 182.163Z" fill="#030047"/>
<path d="M365.585 85.0197H334.411C333.781 85.0197 333.151 84.5474 333.151 83.7602C333.151 82.973 333.624 82.5006 334.411 82.5006H365.585C366.214 82.5006 366.844 82.973 366.844 83.7602C366.844 84.5474 366.214 85.0197 365.585 85.0197Z" fill="#030047"/>
<path d="M365.585 99.662H334.411C333.781 99.662 333.151 99.1897 333.151 98.4024C333.151 97.6152 333.624 97.1429 334.411 97.1429H365.585C366.214 97.1429 366.844 97.6152 366.844 98.4024C366.844 99.1897 366.214 99.662 365.585 99.662Z" fill="#030047"/>
<path d="M357.24 147.84C356.611 147.84 356.138 147.367 356.138 146.738C355.981 146.108 356.453 145.478 357.083 145.478C360.389 145.006 363.696 144.376 366.844 143.274C367.474 143.116 368.104 143.431 368.261 144.061C368.419 144.691 368.104 145.321 367.474 145.478C364.325 146.58 360.862 147.367 357.24 147.84C357.398 147.84 357.398 147.84 357.24 147.84Z" fill="#030047"/>
<path d="M382.431 137.921C382.116 137.921 381.644 137.763 381.486 137.449C381.172 136.976 381.172 136.189 381.801 135.874C386.21 132.725 390.303 128.947 393.61 124.538C394.082 124.066 394.712 123.908 395.342 124.381C395.814 124.853 395.971 125.483 395.499 126.113C392.035 130.678 387.784 134.615 383.218 137.921C382.903 137.921 382.746 137.921 382.431 137.921Z" fill="#030047"/>
<path d="M399.75 118.083C399.593 118.083 399.435 118.083 399.278 117.926C398.648 117.611 398.49 116.981 398.805 116.351C402.899 108.636 404.946 99.8195 404.946 91.0026C404.946 71.637 395.027 54.1608 378.495 44.0843C377.865 43.7695 377.708 42.9822 378.023 42.5099C378.338 41.8801 379.125 41.7227 379.597 42.0376C396.916 52.5863 407.15 70.8498 407.15 91.0026C407.15 100.134 404.946 109.266 400.695 117.453C400.695 117.768 400.222 118.083 399.75 118.083Z" fill="#030047"/>
<path d="M312.998 50.0671C312.684 50.0671 312.369 49.9097 312.054 49.5948C311.581 49.1225 311.739 48.3353 312.211 47.863C322.602 38.7312 335.985 33.693 349.998 33.693C353.934 33.693 357.713 34.0078 361.491 34.7951C362.121 34.9525 362.593 35.5823 362.436 36.2121C362.278 36.8419 361.649 37.3142 361.019 37.1567C357.398 36.3695 353.619 36.0547 349.998 36.0547C336.615 36.0547 323.862 40.9354 313.786 49.5948C313.628 49.9097 313.313 50.0671 312.998 50.0671Z" fill="#030047"/>
<path d="M422.265 92.2621C421.635 92.2621 421.005 91.7898 421.005 91.0026C421.005 88.6409 420.848 86.1218 420.69 83.7602C417.069 47.3906 386.682 19.9954 349.998 19.9954C349.368 19.9954 348.738 19.5231 348.738 18.7359C348.738 17.9486 349.211 17.4762 349.998 17.4762C387.784 17.4762 419.116 45.8162 422.894 83.2879C423.209 85.807 423.209 88.3261 423.209 90.8452C423.367 91.6324 422.894 92.2621 422.265 92.2621Z" fill="#030047"/>
<path d="M316.935 28.1825C316.462 28.1825 316.147 28.025 315.833 27.5526C315.518 26.9229 315.833 26.2931 316.305 25.9782C322.76 22.6719 329.688 20.3102 336.93 18.8932C337.56 18.7358 338.19 19.2081 338.347 19.8379C338.504 20.4676 338.032 21.0974 337.402 21.2549C330.475 22.5144 323.705 24.8761 317.407 28.025C317.25 28.025 317.092 28.1825 316.935 28.1825Z" fill="#030047"/>
<path d="M332.364 162.167C332.207 162.167 332.207 162.167 332.049 162.167C313.471 157.444 297.097 145.321 287.178 128.789C286.863 128.159 287.02 127.53 287.65 127.215C288.28 126.9 288.91 127.057 289.225 127.687C298.829 143.746 314.731 155.397 332.679 159.963C333.309 160.12 333.624 160.75 333.466 161.38C333.309 161.852 332.837 162.167 332.364 162.167Z" fill="#030047"/>
<path d="M349.998 164.371C349.368 164.371 348.738 163.899 348.738 163.112C348.738 162.325 349.211 161.852 349.998 161.852C366.215 161.852 382.116 156.184 394.712 146.108C395.184 145.636 395.971 145.793 396.444 146.265C396.916 146.738 396.759 147.525 396.286 147.997C383.218 158.546 366.844 164.371 349.998 164.371Z" fill="#030047"/>
<path d="M433.915 124.696C433.758 124.696 433.6 124.696 433.443 124.538C432.813 124.381 432.498 123.593 432.813 122.964C436.749 112.73 438.796 102.024 438.796 91.0026C438.796 67.0711 429.349 44.5566 412.188 27.7101C411.716 27.2378 411.716 26.4506 412.188 25.9783C412.66 25.506 413.448 25.506 413.92 25.9783C431.554 43.2971 441.158 66.2839 441.158 91.0026C441.158 102.339 439.111 113.36 435.017 123.908C434.86 124.381 434.388 124.696 433.915 124.696Z" fill="#030047"/>
<path d="M397.861 16.2167C397.703 16.2167 397.389 16.2168 397.231 16.0593C392.823 13.3828 388.257 11.0211 383.533 8.97436C382.904 8.65947 382.589 8.0297 382.904 7.39992C383.219 6.77015 383.848 6.45522 384.478 6.77011C389.359 8.81688 394.082 11.1786 398.491 14.0126C399.12 14.3275 399.278 15.1147 398.806 15.587C398.648 15.9019 398.333 16.2167 397.861 16.2167Z" fill="#030047"/>
<path d="M270.961 49.4374C270.804 49.4374 270.646 49.4374 270.331 49.2799C269.702 48.965 269.544 48.1778 269.859 47.7055C280.88 27.5527 298.829 12.2806 320.556 4.88072C330.003 1.73184 339.922 0 349.998 0C350.628 0 351.258 0.472313 351.258 1.25953C351.258 2.04675 350.785 2.51906 349.998 2.51906C340.236 2.51906 330.475 4.0935 321.343 7.24238C300.246 14.4848 282.769 29.2845 272.063 48.965C271.906 49.1225 271.433 49.4374 270.961 49.4374Z" fill="#030047"/>
<path d="M294.263 97.143C293.633 97.143 293.161 96.6706 293.161 96.0408C293.003 94.3089 292.846 92.4196 292.846 90.6877C292.846 81.3985 295.05 72.2668 299.301 64.0797C299.616 63.45 300.246 63.2925 300.875 63.6074C301.505 63.9223 301.663 64.5521 301.348 65.1819C297.254 73.0541 295.207 81.8708 295.207 90.6877C295.207 92.4196 295.365 94.1515 295.522 95.8834C295.365 96.5132 294.892 97.143 294.263 97.143Z" fill="#030047"/>
<path d="M286.076 96.0408L287.178 94.7813C288.28 93.5217 287.65 92.2622 286.39 91.1601C281.982 86.5942 277.574 85.1772 272.22 86.9091C268.599 81.556 256.634 92.577 249.234 101.236C247.029 103.913 243.723 107.062 240.102 110.368C243.723 119.342 246.715 128.632 250.178 137.606C250.651 139.023 251.28 140.44 251.91 141.7C254.429 138.078 257.106 134.772 259.94 131.938C262.144 129.734 263.719 127.53 265.136 125.483C269.544 122.334 275.212 115.406 275.212 115.406C276.629 116.823 278.991 115.879 284.186 111.628C289.382 107.377 287.02 103.441 287.02 103.441C289.854 99.5046 286.076 96.0408 286.076 96.0408Z" fill="white"/>
<path d="M251.595 144.061L250.808 142.172C250.178 140.755 249.706 139.338 249.076 138.078C247.344 133.67 245.77 129.104 244.195 124.853C242.621 120.287 240.889 115.564 239 110.998L238.685 110.211L239.315 109.738C242.936 106.59 246.085 103.441 248.446 100.607C251.753 96.6706 263.246 84.2325 269.859 84.5474C270.961 84.5474 271.906 85.0197 272.693 85.8069C278.046 84.3899 282.769 85.8069 287.335 90.5303C288.122 91.3175 290.327 93.5217 288.122 95.8834L287.65 96.3557C288.91 98.0876 290.169 100.922 288.122 103.913C288.91 105.802 288.752 109.424 284.816 112.887C280.722 116.351 277.574 118.398 275.369 117.296C273.795 119.185 269.544 123.908 265.923 126.585C264.506 128.789 262.774 130.993 260.727 133.04C258.208 135.559 255.846 138.551 252.855 142.644L251.595 144.061ZM241.361 110.683C243.093 115.091 244.668 119.5 246.242 123.908C247.817 128.317 249.391 132.725 251.123 137.134C251.438 137.921 251.753 138.551 252.068 139.338C254.587 135.874 256.791 133.355 258.995 131.151C261.042 129.104 262.616 127.057 264.033 124.853L264.191 124.696L264.348 124.538C268.599 121.547 274.11 114.777 274.267 114.777L275.054 113.832L275.999 114.777C276.471 115.249 277.888 115.564 283.399 110.841C287.65 107.219 285.918 104.385 285.918 104.228L285.446 103.441L285.918 102.811C288.28 99.9769 285.446 97.1429 285.288 96.9854L284.501 96.1982L286.39 94.1515C286.705 93.8366 287.02 93.5217 285.603 92.1047C281.352 87.8537 277.416 86.5942 272.693 88.1686L271.906 88.4835L271.433 87.6963C271.118 87.0665 270.489 86.909 269.859 86.7516C265.765 86.5941 257.106 94.3089 250.336 102.024C247.817 104.543 244.825 107.534 241.361 110.683Z" fill="#030047"/>
<path d="M253.642 97.1429C253.642 96.3557 253.799 95.5684 254.272 94.9387H245.14C244.51 94.9387 243.88 95.411 243.88 96.1982C243.88 96.9854 244.353 97.4578 245.14 97.4578L253.642 97.1429Z" fill="#030047"/>
<path d="M294.105 94.7813H268.599C268.442 95.7259 268.127 96.5131 267.34 97.1429H293.948C294.577 97.1429 295.207 96.6706 295.207 95.8834C295.207 95.0962 294.735 94.7813 294.105 94.7813Z" fill="#030047"/>
<path d="M243.566 106.904C234.906 115.249 221.524 130.678 208.771 135.717C192.869 142.014 164.844 107.692 145.006 109.738L150.044 144.219C150.044 144.219 166.733 178.699 197.592 185.469C228.451 192.239 259.94 138.236 260.097 138.078C256.161 128.947 250.808 113.202 243.566 106.904Z" fill="#030047"/>
<path d="M203.103 187.358C201.213 187.358 199.324 187.201 197.435 186.728C166.418 179.801 149.257 145.163 149.099 144.848L148.942 144.533L143.746 108.794L145.006 108.636C155.082 107.692 166.89 115.406 178.226 122.806C189.877 130.521 200.898 137.606 208.456 134.615C218.532 130.678 228.923 119.972 237.425 111.47C239.315 109.423 241.204 107.692 242.936 105.96L243.723 105.173L244.51 105.802C250.493 110.998 255.059 122.176 258.838 131.151C259.782 133.355 260.57 135.402 261.357 137.291L261.672 138.078L261.042 138.708C255.689 147.525 230.026 187.358 203.103 187.358ZM151.304 143.904C152.563 146.423 169.095 177.912 197.907 184.367C224.987 190.35 253.17 147.21 258.838 137.921C258.051 136.189 257.263 134.3 256.476 132.253C253.012 123.908 248.919 113.517 243.566 108.479C242.149 109.896 240.574 111.47 239 113.045C230.498 121.704 219.792 132.568 209.243 136.661C200.426 140.125 188.933 132.568 176.809 124.538C166.418 117.768 155.712 110.683 146.738 110.683C146.58 110.683 146.58 110.683 146.423 110.683L151.304 143.904Z" fill="#030047"/>
<path d="M271.276 88.9559C269.859 92.7345 267.655 95.7259 264.506 98.4025C264.191 98.7174 264.191 99.1897 264.506 99.5046C267.97 103.283 267.655 108.479 263.876 111.943C263.089 112.572 264.191 113.675 264.978 113.045C268.284 110.053 269.701 105.487 267.812 101.236C267.655 101.079 266.395 99.1897 266.553 99.1897C266.71 98.245 268.599 96.8281 269.229 96.0408C270.804 93.9941 272.063 91.7899 272.85 89.2708C273.165 88.3261 271.748 88.0112 271.276 88.9559Z" fill="#030047"/>
<path d="M274.897 98.7174C270.961 100.292 270.331 105.173 273.795 107.692C274.582 108.321 275.369 106.904 274.582 106.275C272.22 104.7 272.693 101.236 275.369 100.292C276.156 99.8195 275.842 98.4025 274.897 98.7174Z" fill="#030047"/>
<path d="M282.297 102.181C279.305 103.913 271.433 108.794 274.425 113.202C275.054 113.989 276.314 113.202 275.842 112.415C273.795 109.266 281.037 104.858 283.241 103.598C284.029 102.968 283.241 101.709 282.297 102.181Z" fill="#030047"/>
<path d="M131.308 106.432L128.632 113.202L158.388 116.666L159.805 102.811L131.308 106.432Z" fill="#030047"/>
<path d="M154.61 114.147C137.921 101.236 103.598 123.593 98.0875 142.644C92.577 161.695 85.9644 254.115 85.9644 254.115L187.201 252.698C187.201 252.698 179.014 152.878 167.205 136.032C155.555 119.028 160.278 118.398 154.61 114.147Z" fill="#030047"/>
<path d="M176.809 167.835C176.337 167.835 175.707 167.52 175.707 166.891C175.707 166.733 173.66 157.444 169.41 142.959C169.252 142.329 169.567 141.7 170.197 141.542C170.827 141.385 171.456 141.7 171.614 142.329C176.022 156.972 177.911 166.261 177.911 166.418C178.069 167.048 177.597 167.678 176.967 167.835H176.809Z" fill="white"/>
<path d="M192.869 196.49H184.682C179.643 196.49 175.55 192.396 175.55 187.358V177.439C175.55 172.401 179.643 168.308 184.682 168.308H192.869C193.499 168.308 194.128 168.78 194.128 169.567C194.128 170.354 193.656 170.827 192.869 170.827H184.682C180.903 170.827 177.912 173.976 177.912 177.597V187.516C177.912 191.294 181.06 194.286 184.682 194.286H192.869C193.499 194.286 194.128 194.758 194.128 195.545C194.128 196.333 193.499 196.49 192.869 196.49Z" fill="white"/>
<path d="M200.741 199.796C193.656 199.796 187.83 193.971 187.83 186.886V166.733H213.651V186.886C213.651 193.971 207.983 199.796 200.741 199.796Z" fill="white"/>
<path d="M200.741 200.898C193.026 200.898 186.728 194.601 186.728 186.886V165.474H214.911V186.886C214.911 194.601 208.613 200.898 200.741 200.898ZM189.09 167.835V186.886C189.09 193.341 194.286 198.537 200.741 198.537C207.196 198.537 212.392 193.341 212.392 186.886V167.835H189.09Z" fill="#030047"/>
<path d="M203.103 159.333C202.473 159.333 202 158.861 202 158.388L199.796 142.802C199.639 142.172 200.111 141.542 200.741 141.385C201.371 141.227 202 141.7 202.158 142.329L204.362 157.916C204.52 158.546 204.047 159.176 203.417 159.333C203.103 159.333 203.103 159.333 203.103 159.333Z" fill="white"/>
<path d="M195.23 160.435C194.758 160.435 194.443 160.278 194.128 159.806L190.507 153.036C190.192 152.406 190.35 151.776 190.979 151.461C191.609 151.146 192.239 151.304 192.554 151.933L196.175 158.703C196.49 159.333 196.333 159.963 195.703 160.278C195.703 160.278 195.545 160.435 195.23 160.435Z" fill="white"/>
<path d="M163.899 77.1475C158.703 65.6541 146.108 60.1436 135.874 64.8669C125.64 69.5902 121.389 82.658 126.585 94.1515C126.585 94.1515 126.585 94.1515 126.585 94.309C125.483 94.7813 124.538 95.411 123.908 96.0408C118.713 100.449 119.815 106.904 124.853 109.109C129.261 110.998 135.402 110.683 139.18 106.117C144.219 108.007 149.729 108.164 154.61 106.432C169.725 101.079 169.095 88.6409 163.899 77.1475Z" fill="white"/>
<path d="M130.206 111.313C128.159 111.313 126.113 110.841 124.381 110.053C121.704 108.794 119.972 106.59 119.5 103.756C119.028 100.607 120.445 97.4578 123.279 94.9387C123.908 94.4664 124.538 93.9941 125.325 93.5218C122.964 88.0112 122.649 81.8709 124.381 76.3603C126.27 70.5349 130.206 65.9691 135.402 63.6074C140.755 61.2458 146.738 61.2457 152.248 63.7648C157.759 66.2839 162.325 70.6923 165.001 76.5177C168.78 84.8623 169.41 91.7898 167.205 97.3004C165.316 101.866 161.223 105.33 155.24 107.377C150.359 109.109 144.848 109.109 139.653 107.377C136.819 110.211 133.355 111.313 130.206 111.313ZM143.589 64.3946C141.07 64.3946 138.708 64.867 136.346 65.9691C131.623 68.0158 128.159 72.1093 126.585 77.305C125.01 82.5006 125.325 88.3261 127.687 93.6792L128.159 94.6238L127.215 95.2536C126.27 95.7259 125.325 96.3557 124.696 96.828C122.491 98.7174 121.389 101.079 121.862 103.441C122.176 105.487 123.436 107.062 125.325 107.849C129.104 109.581 134.772 109.424 138.393 105.173L138.866 104.543L139.653 104.858C144.376 106.747 149.572 106.904 154.295 105.173C159.648 103.283 163.269 100.292 165.001 96.3557C167.048 91.475 166.418 85.1772 162.954 77.4625C160.593 72.1094 156.499 68.0158 151.461 65.8116C148.784 64.8669 146.108 64.3946 143.589 64.3946Z" fill="#030047"/>
<path d="M149.161 85.5272C150.03 85.5014 150.714 84.776 150.688 83.9068C150.662 83.0376 149.937 82.3538 149.068 82.3795C148.198 82.4053 147.515 83.1307 147.54 83.9999C147.566 84.8691 148.292 85.5529 149.161 85.5272Z" fill="#030047"/>
<path d="M162.325 85.3346C160.435 82.3432 158.231 79.6666 155.555 77.3049C154.767 76.6751 153.665 77.7773 154.452 78.407C156.972 80.6112 159.176 83.2878 161.065 86.1218C161.537 86.909 162.797 86.1218 162.325 85.3346Z" fill="#030047"/>
<path d="M148.784 67.8583C145.321 71.637 128.159 80.139 134.615 88.6409C136.189 90.8451 138.078 91.6323 136.346 93.8366C134.3 95.7259 132.41 93.3642 132.41 93.3642C129.261 94.1515 125.798 95.2536 124.066 96.828C115.721 89.5856 115.721 80.4539 119.5 77.4624C119.5 77.4624 141.542 45.8162 151.776 54.1608C160.75 61.7181 148.784 67.8583 148.784 67.8583Z" fill="#030047"/>
<path d="M134.93 99.1896C131.623 97.6152 127.53 98.5599 125.168 101.394C124.538 102.181 125.64 103.283 126.27 102.496C128.159 100.134 131.308 99.1897 134.142 100.607C135.087 101.079 135.717 99.662 134.93 99.1896Z" fill="#030047"/>
<path d="M185.154 184.997C185.154 184.997 189.09 175.707 184.367 175.078C170.827 173.503 155.712 188.303 142.014 194.128C142.014 202.158 142.644 210.188 142.959 218.217C143.116 223.098 143.274 227.821 143.274 232.702C154.767 229.238 164.214 223.255 167.52 217.902C170.354 213.022 175.55 212.707 177.911 209.873C182.635 211.919 189.405 199.639 184.052 195.23C184.209 195.23 190.35 190.507 185.154 184.997Z" fill="white"/>
<path d="M142.329 234.277V230.97C142.329 226.877 142.172 222.468 142.014 218.217C141.857 215.541 141.7 212.864 141.542 210.345C141.227 204.992 140.912 199.639 140.912 194.128V193.341L141.7 193.026C146.265 190.979 150.989 188.146 155.87 184.997C165.474 179.014 175.235 172.716 184.682 173.818C185.941 173.976 186.886 174.605 187.358 175.55C188.775 178.069 187.358 182.792 186.571 184.682C187.988 186.414 188.618 188.146 188.46 190.035C188.303 192.397 186.886 194.128 185.941 195.23C188.46 198.222 187.516 203.103 185.312 206.566C183.422 209.873 180.746 211.447 178.384 211.132C177.282 212.077 176.022 212.864 174.605 213.494C172.401 214.596 170.197 215.856 168.622 218.375C165.159 224.2 155.397 230.183 143.746 233.804L142.329 234.277ZM143.274 194.916C143.274 199.954 143.589 205.149 143.904 210.188C144.061 212.864 144.219 215.541 144.376 218.217C144.534 222.468 144.691 226.719 144.691 230.97V231.128C154.925 227.821 163.742 222.311 166.733 217.273C168.622 214.124 171.299 212.707 173.661 211.447C175.078 210.66 176.495 210.03 177.282 209.086L177.912 208.456L178.699 208.771C179.958 209.243 182.005 207.983 183.422 205.464C185.312 202.315 185.941 198.064 183.58 196.175L182.478 195.23L183.58 194.286C183.58 194.286 185.941 192.396 186.099 189.877C186.256 188.46 185.626 187.043 184.367 185.784L183.895 185.154L184.209 184.524C185.154 182.163 186.256 178.384 185.312 176.81C185.154 176.495 184.997 176.337 184.367 176.18C175.865 175.235 166.418 181.218 157.129 186.886C152.563 189.877 147.84 192.869 143.274 194.916Z" fill="#030047"/>
<path d="M150.674 206.409C149.257 201.528 148.155 196.647 147.053 191.767C140.283 195.545 133.67 197.907 127.687 195.86C111.155 190.192 105.015 159.963 124.066 145.006C143.117 130.049 144.848 109.738 144.848 109.738C114.777 110.998 85.8069 129.104 72.4242 165.631C57.3096 207.196 76.9901 228.294 92.577 235.694C110.526 244.038 143.431 234.591 157.129 226.719C154.925 220.107 152.721 213.336 150.674 206.409Z" fill="#030047"/>
<path d="M184.367 183.58C178.541 180.431 172.873 183.894 168.15 187.358C167.363 187.988 168.15 189.248 168.937 188.775C173.188 185.626 178.384 182.163 183.58 184.997C184.524 185.311 185.311 184.052 184.367 183.58Z" fill="#030047"/>
<path d="M182.792 193.499C178.227 192.239 173.818 193.656 170.827 197.435C170.197 198.222 171.299 199.324 171.929 198.537C174.448 195.23 178.227 193.971 182.32 195.073C183.422 195.23 183.737 193.813 182.792 193.499Z" fill="#030047"/>
<path d="M178.856 204.834C178.227 205.779 177.597 206.724 176.967 207.511C176.337 208.298 177.754 209.085 178.384 208.298C179.014 207.354 179.644 206.409 180.273 205.622C180.746 204.677 179.329 203.89 178.856 204.834Z" fill="#030047"/>
<path d="M132.725 197.277C129.104 197.277 124.538 196.49 119.657 194.128C114.462 191.609 110.84 187.673 109.266 182.635C106.747 174.763 108.794 164.371 115.406 151.933C115.721 151.304 116.351 151.146 116.981 151.461C117.611 151.776 117.768 152.406 117.453 153.036C111.313 164.686 109.266 174.763 111.47 181.848C112.887 186.256 116.036 189.72 120.602 191.924C132.41 197.592 141.385 193.026 141.542 193.026C142.172 192.711 142.802 193.026 143.116 193.499C143.431 194.128 143.274 194.758 142.644 195.073C142.487 195.388 138.708 197.277 132.725 197.277Z" fill="white"/>
<path d="M115.406 239.63C106.904 239.63 98.8749 238.842 92.5771 236.796C91.9473 236.638 91.6324 235.851 91.7899 235.379C91.9473 234.906 92.7346 234.434 93.2069 234.591C111.47 240.574 147.368 235.221 156.972 231.6C157.601 231.285 158.231 231.6 158.546 232.23C158.704 232.86 158.546 233.489 157.916 233.804C150.989 236.481 132.568 239.63 115.406 239.63Z" fill="white"/>
<path d="M239.981 43.9363C239.758 43.7136 239.647 43.3796 239.647 43.1569C239.647 42.489 240.204 41.9323 240.872 41.9323L255.567 41.9323C256.235 41.9323 256.792 42.489 256.792 43.1569C256.792 43.8249 256.235 44.3816 255.567 44.3816L240.872 44.3816C240.538 44.2702 240.204 44.1589 239.981 43.9363Z" fill="#FF3E6C"/>
<path d="M247.44 51.3953C247.217 51.1727 247.106 50.8387 247.106 50.616L247.106 35.9205C247.106 35.2525 247.663 34.6958 248.331 34.6958C248.999 34.6958 249.555 35.2525 249.555 35.9205L249.555 50.616C249.555 51.284 248.999 51.8406 248.331 51.8406C247.885 51.618 247.551 51.5066 247.44 51.3953Z" fill="#FF3E6C"/>
</svg>
